<svg aria-labelledby="nav-ig" role="img" viewBox="0 0 186 186" width="16" height="16"><title id="nav-ig">Instagram</title><path fill="#231F20" d="M0 0h186v186H0z"></path><path d="M164.3 78.5H148c1.3 4.6 2 9.4 2 14.3 0 31.6-25.6 57.2-57.2 57.2-31.5 0-57-25.6-57-57.2 0-5 .6-9.7 1.8-14.3H21.4V157c0 4 3.2 7.2 7.2 7.2H157c4 0 7.3-3 7.3-7V78.4zm0-50c0-4-3.2-7-7.2-7h-21.3c-4 0-7 3-7 7V50c0 4 3 7 7 7H157c4 0 7.3-3 7.3-7V28.6zM92.8 57.2C73 57 57 73 57 93c0 19.8 16 35.7 35.8 35.7s35.8-16 35.8-35.7c0-19.7-16-35.7-35.8-35.7" fill="#FFF"></path></svg>