<svg aria-labelledby="nav-tw" role="img" viewBox="0 0 404 404" width="16" height="16"><title id="nav-tw">Twitter</title><path fill="#55ACEE" d="M0 0h404v404H0z"></path><path d="M340 115c-10 4.4-21 7.4-32.2 8.8 11.5-7 20.4-18 24.6-31-10.8 6.4-22.8 11-35.6 13.6-10.2-11-24.7-17.7-40.8-17.7-31 0-56 25-56 56 0 4.4.5 8.6 1.5 12.7C155 155 113.8 132.8 86.2 99c-5 8.2-7.6 17.8-7.6 28 0 19.5 10 36.6 25 46.7-9.3-.3-18-2.8-25.5-7v.7c0 27 19.4 49.7 45 54.8-4.7 1.3-9.6 2-14.7 2-3.6 0-7-.4-10.6-1 7.2 22.2 27.8 38.4 52.3 38.8-19 15-43.3 24-69.5 24-4.5 0-9-.3-13.3-.8 24.7 16 54.2 25.2 85.8 25.2 103 0 159-85.3 159-159.2V144c11-8 20.4-17.8 28-29z" fill="#FFF"></path></svg>